<svg width="22" height="25" viewBox="0 0 22 25" fill="none" xmlns="http://www.w3.org/2000/svg">
<path fill-rule="evenodd" clip-rule="evenodd" d="M21.21 5.7875C21.51 5.9575 21.74 6.3875 21.74 6.7375V18.0575C21.74 18.4075 21.51 18.8375 21.21 19.0075L17.61 21.0975C17.31 21.2675 16.92 21.1675 16.74 20.8675L16.59 20.5975C16.42 20.2975 16.53 19.9075 16.83 19.7275L19.64 18.1175C19.94 17.9475 20.22 17.5175 20.22 17.1675V7.7275C20.22 7.3775 19.94 6.9475 19.63 6.7775L11.41 2.0475C11.11 1.8775 10.6 1.8775 10.3 2.0475L2.11 6.7675C1.81 6.9375 1.53 7.3675 1.53 7.7175V17.1575C1.53 17.5075 1.81 17.9375 2.11 18.1075L10.32 22.8275C10.62 22.9975 11.12 22.9975 11.42 22.8275L14.24 21.1975C14.54 21.0275 14.93 21.1275 15.11 21.4275L15.27 21.6975C15.44 21.9975 15.34 22.3875 15.04 22.5675L11.43 24.6575C11.13 24.8275 10.64 24.8275 10.33 24.6575L0.54 19.0075C0.24 18.8375 0 18.4075 0 18.0575V6.7375C0 6.3875 0.23 5.9575 0.54 5.7875L10.32 0.1275C10.62 -0.0425 11.12 -0.0425 11.42 0.1275L21.2 5.7875H21.21ZM9.03 7.8175C9.03 7.9675 9.14 8.1575 9.27 8.2275L10.57 8.9775C10.7 9.0575 10.92 9.0575 11.05 8.9775L12.35 8.2275C12.48 8.1475 12.59 7.9675 12.59 7.8175V6.3175C12.59 6.1675 12.48 5.9775 12.35 5.9075L11.05 5.1575C10.92 5.0775 10.7 5.0775 10.57 5.1575L9.27 5.9075C9.14 5.9875 9.03 6.1675 9.03 6.3175V7.8175ZM9.03 19.3475C9.03 19.5175 9.15 19.7275 9.3 19.8175L10.53 20.5275C10.68 20.6175 10.93 20.6175 11.08 20.5275L12.31 19.8175C12.46 19.7275 12.58 19.5175 12.58 19.3475V10.0575C12.58 9.8875 12.46 9.8175 12.31 9.9075L11.07 10.6375C10.92 10.7275 10.68 10.7275 10.53 10.6375L9.29 9.9075C9.14 9.8175 9.02 9.8875 9.02 10.0575V19.3475H9.03Z" fill="#040000"/>
</svg>
