<?xml version="1.0" encoding="UTF-8"?>
<svg id="_图层_1" data-name="图层_1" xmlns="http://www.w3.org/2000/svg" viewBox="0 0 256 256">
  <defs>
    <style>
      .cls-1 {
        fill: #fff;
      }

      .cls-2 {
        fill: #b11e23;
      }
    </style>
  </defs>
  <path class="cls-2" d="M128.06,253.63c-13.75,0-27.26-2.27-40.26-6.77-15.11-5.23-28.91-13.25-41-23.83-12.09-10.58-21.87-23.18-29.07-37.46-7.45-14.79-11.8-30.73-12.91-47.39-1.11-16.66,1.07-33.04,6.49-48.69,5.23-15.11,13.25-28.91,23.83-41,10.58-12.09,23.18-21.87,37.46-29.07,14.79-7.45,30.73-11.8,47.39-12.91,16.66-1.11,33.04,1.07,48.69,6.49,15.11,5.23,28.91,13.25,41,23.83,12.09,10.58,21.87,23.18,29.07,37.46,7.45,14.79,11.8,30.73,12.91,47.39,1.11,16.66-1.07,33.04-6.49,48.69-5.23,15.11-13.25,28.91-23.83,41-10.58,12.09-23.18,21.87-37.46,29.07-14.79,7.45-30.73,11.8-47.39,12.91-2.82.19-5.63.28-8.43.28ZM128.41,13.23c-2.64,0-5.3.09-7.96.27-15.72,1.05-30.76,5.15-44.71,12.18-13.47,6.79-25.36,16.02-35.34,27.43-9.98,11.41-17.54,24.42-22.48,38.68-5.11,14.76-7.17,30.21-6.12,45.93,1.05,15.72,5.15,30.76,12.18,44.71,6.79,13.47,16.02,25.36,27.43,35.34,11.41,9.98,24.42,17.54,38.68,22.48,14.76,5.11,30.21,7.17,45.93,6.12,15.72-1.05,30.76-5.15,44.71-12.18,13.47-6.79,25.36-16.02,35.34-27.43,9.98-11.41,17.54-24.42,22.48-38.68,5.11-14.76,7.17-30.21,6.12-45.93-1.05-15.72-5.15-30.76-12.18-44.71-6.79-13.47-16.02-25.36-27.43-35.34-11.41-9.98-24.42-17.54-38.68-22.48-12.26-4.25-25-6.38-37.97-6.38Z"/>
  <path class="cls-2" d="M197.93,142.94c-2.58,13.97-9.31,26.83-19.57,37.1-7.11,7.11-15.47,12.53-24.58,16.04l-.29,2.07c1.03-.38,2.05-.78,3.07-1.21,8.66-3.67,16.44-8.91,23.12-15.59,6.68-6.68,11.93-14.46,15.59-23.12,2.1-4.96,3.62-10.1,4.57-15.36l-1.89.07ZM78.12,180.04c-2.84-2.85-5.42-5.89-7.71-9.11l-2.15.16c2.51,3.65,5.36,7.08,8.54,10.26,6.68,6.68,14.46,11.92,23.12,15.59,5.82,2.46,11.86,4.13,18.07,5l.37-1.83c-15.19-2.1-29.21-9.05-40.24-20.08ZM195.26,101.61c-3.66-8.66-8.91-16.44-15.59-23.12-6.68-6.68-14.46-11.92-23.12-15.59-8.97-3.79-18.49-5.71-28.31-5.71s-19.34,1.92-28.31,5.71c-2.3.97-4.53,2.06-6.7,3.25l4.44-.21c9.42-4.52,19.82-6.9,30.58-6.9,8.43,0,16.64,1.47,24.34,4.27.56.21,1.11.42,1.67.64,8.93,3.51,17.12,8.86,24.12,15.85,9.54,9.54,16.03,21.33,18.97,34.17l1.88-.09c-.94-4.18-2.26-8.28-3.95-12.27Z"/>
  <path class="cls-2" d="M205.25,142.68c-.99,6.04-2.69,11.94-5.09,17.62-3.93,9.29-9.56,17.64-16.73,24.81-7.17,7.17-15.52,12.8-24.81,16.73-2.6,1.1-5.25,2.06-7.94,2.86l-1.88,2.46c3.58-.95,7.1-2.16,10.54-3.61,9.52-4.02,18.06-9.78,25.4-17.12,7.34-7.34,13.1-15.88,17.12-25.4,2.51-5.94,4.28-12.1,5.28-18.41l-1.9.07ZM97.85,201.84c-9.29-3.93-17.64-9.56-24.81-16.73-4.14-4.14-7.77-8.67-10.85-13.56l-2.09.16c3.27,5.32,7.15,10.25,11.63,14.72,7.34,7.34,15.89,13.1,25.4,17.12,6.26,2.65,12.76,4.47,19.44,5.44l.37-1.83c-6.56-.94-12.94-2.72-19.09-5.32ZM201.86,98.82c-4.02-9.51-9.78-18.06-17.12-25.4s-15.88-13.1-25.4-17.12c-9.85-4.16-20.32-6.28-31.1-6.28s-21.25,2.12-31.1,6.28c-6.45,2.72-12.45,6.25-17.93,10.53l3.3-.16c4.76-3.45,9.89-6.35,15.35-8.65,9.62-4.07,19.84-6.14,30.38-6.14s20.76,2.07,30.38,6.14c9.29,3.93,17.64,9.56,24.81,16.73,7.16,7.16,12.79,15.51,16.73,24.81,1.93,4.57,3.41,9.27,4.43,14.08l1.88-.09c-1.04-5.03-2.58-9.94-4.6-14.72Z"/>
  <g>
    <path class="cls-1" d="M87.59,32.12l6.84,16.23-3.96,1.67-6.84-16.23,3.96-1.67Z"/>
    <path class="cls-1" d="M95.16,43.14l-2.53-8.2c-.47-1.52-.44-2.78.1-3.76.54-.98,1.61-1.72,3.22-2.22,1.59-.49,2.89-.48,3.89.02,1,.51,1.73,1.52,2.2,3.05l2.53,8.2c.14.45.21.94.22,1.46l2.21.77-1.4,2.91-1.97-.66c-.63.7-1.41,1.2-2.36,1.49-1.61.5-2.91.5-3.91,0-1-.5-1.73-1.52-2.21-3.06ZM97.04,32.45c-.66.2-.89.65-.67,1.34l2.53,8.2c.12.38.28.64.5.75.21.12.49.13.83.02.34-.1.56-.27.67-.48.11-.22.1-.52-.01-.9l-2.53-8.2c-.21-.69-.65-.93-1.31-.73Z"/>
    <path class="cls-1" d="M113.1,38.59l-2.28-12.91,3.87-.68,2.31,13.03c.27,1.54.09,2.74-.56,3.62-.64.88-1.78,1.46-3.4,1.75-1.62.29-2.89.13-3.81-.48-.92-.6-1.51-1.68-1.78-3.21l-2.3-13.03,3.84-.68,2.28,12.91c.11.64.48.91,1.11.8.31-.06.53-.17.64-.36.11-.18.14-.44.08-.77Z"/>
    <path class="cls-1" d="M129.98,41.52l-3.42.18-3.36-8.39.44,8.54-3.79.19-.91-17.59,3.48-.18,3.3,8.3-.43-8.44,3.79-.19.91,17.59Z"/>
    <path class="cls-1" d="M137.31,24.25l-.81,17.59-4.29-.2.81-17.59,4.29.2Z"/>
    <path class="cls-1" d="M147.21,33.47l2.53,10.11-4.17-.63-1.04-4.92-2.48,4.38-4.14-.63,5.33-8.91-2.44-8.46,4.14.63,1.01,3.62,2.04-3.15,4.14.63-4.92,7.35Z"/>
    <path class="cls-1" d="M163.92,48.55c-3.04-1.28-3.97-3.31-2.8-6.11l3.49-8.33c1.15-2.74,3.23-3.48,6.23-2.22,2.97,1.25,3.86,3.28,2.68,6.09l-.5,1.18-3.63-1.52.45-1.07c.29-.7.15-1.16-.42-1.4-.57-.24-1,0-1.3.71l-3.32,7.91c-.15.36-.2.65-.14.87.06.22.23.4.53.52.59.25,1.02.03,1.31-.65l1.08-2.58-.93-.39,1.31-3.13,4.56,1.91-2.48,5.92c-.56,1.33-1.35,2.2-2.37,2.61-1.02.41-2.28.3-3.76-.32Z"/>
    <path class="cls-1" d="M181.82,37.54l2.77,1.66-5.2,17.41-3.64-2.18,1.35-3.41-2.17-1.3-2.36,2.81-3.62-2.16,12.87-12.83ZM177.06,47.21l1.25.75,1.59-4.09-2.85,3.34Z"/>
    <path class="cls-1" d="M190.16,65.57l-2.89-2.45,5.47-6.45-4.33,2.76-1.63-1.38,2.04-4.7-5.47,6.45-2.89-2.45,11.37-13.45,2.68,2.27-2.91,7.86,7.3-4.13,2.68,2.27-11.42,13.41Z"/>
    <path class="cls-1" d="M207.5,58.6l-12.98,11.91-2.91-3.17,12.98-11.91,2.91,3.17Z"/>
    <path class="cls-1" d="M202.07,80.26l-2.04-2.75,5.13-7.44-6.87,5.1-2.26-3.05,14.15-10.49,2.07,2.8-5.08,7.34,6.79-5.04,2.26,3.05-14.15,10.49Z"/>
    <path class="cls-1" d="M205.34,86.3c-1.62-2.87-1.11-5.05,1.53-6.54l7.86-4.45c2.58-1.46,4.68-.78,6.28,2.06,1.59,2.8,1.05,4.96-1.61,6.46l-1.12.63-1.94-3.42,1.01-.57c.66-.37.83-.83.53-1.36-.3-.54-.79-.62-1.46-.24l-7.47,4.22c-.34.19-.55.39-.64.6-.09.21-.06.46.1.74.31.55.79.65,1.43.29l2.43-1.38-.5-.88,2.96-1.67,2.43,4.3-5.58,3.16c-1.26.71-2.41.91-3.47.61-1.06-.3-1.98-1.16-2.78-2.56Z"/>
  </g>
  <g>
    <path class="cls-1" d="M69.11,192.66l-14.07,11.76-2.87-3.43,14.07-11.76,2.87,3.43Z"/>
    <path class="cls-1" d="M60.94,204.13l6.11-6.51c1.14-1.21,2.29-1.82,3.45-1.84,1.17-.02,2.39.57,3.67,1.77,1.26,1.19,1.92,2.36,1.98,3.53.05,1.17-.49,2.35-1.62,3.56l-6.11,6.51c-.33.36-.74.67-1.21.95l.44,2.39-3.35.23-.42-2.12c-.96-.2-1.81-.66-2.57-1.37-1.28-1.2-1.95-2.38-2.01-3.54-.06-1.16.48-2.35,1.63-3.57ZM71.58,200.32c-.53-.49-1.05-.47-1.56.08l-6.11,6.51c-.29.31-.43.59-.43.84,0,.25.14.51.41.76.27.25.53.37.78.36s.52-.17.81-.48l6.11-6.51c.51-.55.51-1.07-.02-1.56Z"/>
    <path class="cls-1" d="M76.47,217.11l7.71-11.26,3.38,2.31-7.78,11.37c-.92,1.34-1.94,2.1-3.06,2.29-1.12.19-2.39-.21-3.8-1.18-1.42-.97-2.24-2.01-2.48-3.13-.24-1.12.1-2.34,1.02-3.68l7.78-11.37,3.35,2.3-7.71,11.26c-.38.56-.3,1.03.24,1.4.27.19.52.25.73.2.21-.05.42-.23.62-.51Z"/>
    <path class="cls-1" d="M90.64,230.05l-3.22-1.53,1.08-9.35-3.83,8.04-3.56-1.7,7.88-16.55,3.27,1.56-1.09,9.23,3.78-7.95,3.56,1.7-7.89,16.55Z"/>
    <path class="cls-1" d="M104.58,215.45l-5.82,17.39-4.24-1.42,5.82-17.39,4.24,1.42Z"/>
    <path class="cls-1" d="M111.95,225.76l2.09,10.64-4.3-.88-.82-5.17-2.82,4.42-4.27-.87,6.02-8.98-2.08-8.93,4.27.87.86,3.81,2.29-3.17,4.27.87-5.51,7.37Z"/>
    <path class="cls-1" d="M142.57,236.41c-3.4.48-5.32-.84-5.76-3.97l-1.33-9.31c-.44-3.06,1.02-4.83,4.38-5.31,3.32-.47,5.2.86,5.65,4.01l.19,1.32-4.05.58-.17-1.19c-.11-.78-.48-1.12-1.12-1.03-.64.09-.9.53-.79,1.33l1.26,8.84c.06.4.17.68.34.85.17.17.42.23.75.18.66-.09.93-.52.82-1.28l-.41-2.88-1.04.15-.5-3.5,5.09-.73.94,6.61c.21,1.49-.03,2.69-.73,3.6-.7.91-1.88,1.48-3.53,1.72Z"/>
    <path class="cls-1" d="M149.51,216.06l3.22-.95,9.65,16.27-4.23,1.25-1.66-3.44-2.52.75.48,3.79-4.21,1.24-.74-18.9ZM153.55,226.53l1.46-.43-2.01-4.11.55,4.54Z"/>
    <path class="cls-1" d="M177.98,224.05l-3.54,1.75-3.91-7.89.85,5.28-1.99.99-3.66-3.89,3.91,7.89-3.54,1.75-8.16-16.42,3.27-1.62,6.31,6.02-.94-8.68,3.27-1.62,8.11,16.44Z"/>
    <path class="cls-1" d="M175.1,203.87l10.27,15.19-3.71,2.51-10.27-15.19,3.71-2.51Z"/>
    <path class="cls-1" d="M196.68,209.86l-2.7,2.33-8.12-4.76,5.81,6.75-2.99,2.58-11.97-13.89,2.75-2.37,8,4.72-5.74-6.67,2.99-2.58,11.97,13.89Z"/>
    <path class="cls-1" d="M203.18,203.16c-2.25,2.59-4.57,2.85-6.95.78l-7.1-6.16c-2.33-2.03-2.39-4.32-.17-6.88,2.2-2.53,4.5-2.76,6.9-.67l1.01.88-2.68,3.09-.91-.79c-.59-.51-1.1-.53-1.52-.04-.42.49-.33.99.28,1.52l6.75,5.85c.3.26.58.4.82.42.24.02.47-.1.69-.35.43-.5.36-1-.22-1.51l-2.2-1.91-.69.8-2.67-2.32,3.37-3.89,5.05,4.38c1.13.98,1.74,2.05,1.81,3.19.07,1.14-.44,2.35-1.54,3.62Z"/>
  </g>
  <g>
    <polygon class="cls-1" points="52.41 87.56 83.03 86.1 85.95 73.19 61.98 74.41 72.93 62.8 43.12 64.29 46.97 68.78 34.08 95.96 27.83 110.59 58.3 78.3 52.41 87.56"/>
    <polygon class="cls-1" points="69.36 154.93 72.75 140.44 54.55 147.46 59.82 131.02 73.83 130.35 76.83 117.24 64.03 117.85 67.3 107.64 75.77 107.24 78.84 94.4 48.04 95.87 41.3 108.89 50.12 108.46 46.78 118.67 37.92 119.1 34.54 115.76 29.36 132.48 42.48 131.85 33.28 161.81 39.75 167.69 61.95 160.03 61.89 163.42 69.36 154.93"/>
    <polygon class="cls-1" points="85.24 107 81.04 111.34 98.51 110.5 100.99 98.25 104.83 81.34 124.74 80.06 119.76 99.17 105.08 99.87 103.31 110.16 132.31 108.89 131.62 103.13 139.49 72.74 144.75 67.46 88.42 70.15 92.37 75.18 85.24 107"/>
    <polygon class="cls-1" points="95.64 151.3 93.14 165.54 127.92 163.87 125.54 157.09 132.23 119.11 136.91 114.19 79.38 116.83 81.44 121.11 73.2 160.87 67.78 166.75 87.81 165.79 91.25 148.17 95.56 129.08 116.01 127.98 112.21 150.51 95.64 151.3"/>
    <polygon class="cls-1" points="235.56 115.3 221.8 117.17 136.88 121.23 141.04 127.44 138.99 139.1 139.06 139.1 122.89 219.81 121.54 233.92 149.64 200.52 157.59 146.47 146.07 138.76 218.91 135.28 235.56 115.3"/>
  </g>
</svg>